# xmcd
#
# Track frame offsets:
#	150
#	28712
#	47212
#	66937
#	92212
#	110312
#	129367
#	150737
#	169875
#	195762
#
# Disc length: 2965 seconds
#
# Revision: 0
# Processed by: cddbd v1.5.2PL0 Copyright (c) Steve Scherf et al.
# Submitted via: dBpowerAMP V4.0
#
DISCID=7e0b930a
DTITLE=Son of 76 - Shake and Howl
DYEAR=1900
DGENRE=Blues-Rock
TTITLE0=Clean
TTITLE1=Dead Man
TTITLE2=Water
TTITLE3=Whiskey Queen
TTITLE4=The Angels Must Be Tired
TTITLE5=Heavy Hearts in Leather Jackets
TTITLE6=Seperation Nation
TTITLE7=Shake and Howl
TTITLE8=Grace and Love
TTITLE9=The Night
EXTD=
EXTT0=
EXTT1=
EXTT2=
EXTT3=
EXTT4=
EXTT5=
EXTT6=
EXTT7=
EXTT8=
EXTT9=
PLAYORDER=
